<svg id="Layer_1" data-name="Layer 1" xmlns="http://www.w3.org/2000/svg" width="22" height="22" viewBox="0 0 22 22"><defs><style>.cls-1{fill:#f7931a;}.cls-2{fill:#fff;}</style></defs><g id="Layer_1-2" data-name="Layer_1"><g id="_1421344023328" data-name=" 1421344023328"><path class="cls-1" d="M510.7,502.7a11,11,0,1,1-8-13.4,11.1,11.1,0,0,1,8,13.4Z" transform="translate(-489 -489)"/><path class="cls-2" d="M504.9,498.4c.2-1.4-.9-2.2-2.5-2.7l.5-2-1.2-.3-.5,1.9-.9-.2.5-2-1.3-.3-.4,2-.8-.2h0l-1.7-.4-.3,1.3.9.2c.5.1.6.5.5.7l-.5,2.3h0l-.8,3.2a.5.5,0,0,1-.6.2l-.8-.2-.6,1.4,1.5.4.9.2-.5,2,1.2.3.5-2,.9.3-.4,2,1.2.3.5-2c2,.4,3.6.2,4.2-1.7a2.1,2.1,0,0,0-1.1-2.9,2,2,0,0,0,1.6-1.8Zm-2.8,3.9c-.4,1.5-2.9.7-3.7.5l.6-2.7c.9.2,3.5.6,3.1,2.2Zm.4-3.9c-.4,1.4-2.5.7-3.2.5l.6-2.4c.7.2,2.9.5,2.6,1.9Z" transform="translate(-489 -489)"/></g></g></svg>