<svg id="Layer_1" data-name="Layer 1" xmlns="http://www.w3.org/2000/svg" width="22" height="22" viewBox="0 0 22 22"><defs><style>.cls-1{fill:#ccc;}.cls-2{fill:#343434;}.cls-3{fill:#8c8c8c;}.cls-4{fill:#3c3c3b;}.cls-5{fill:#141414;}.cls-6{fill:#393939;}</style></defs><circle class="cls-1" cx="11" cy="11" r="11"/><g id="Layer_1-2" data-name="Layer_1"><g id="_1421394342400" data-name=" 1421394342400"><polygon class="cls-2" points="11 3.8 10.9 4.1 10.9 13.7 11 13.8 15.4 11.1 11 3.8"/><polygon class="cls-3" points="11 3.8 6.6 11.1 11 13.8 11 9.1 11 3.8"/><polygon class="cls-4" points="11 14.6 10.9 14.7 10.9 18.1 11 18.2 15.4 12 11 14.6"/><polygon class="cls-3" points="11 18.2 11 14.6 6.6 12 11 18.2"/><polygon class="cls-5" points="11 13.8 15.4 11.1 11 9.1 11 13.8"/><polygon class="cls-6" points="6.6 11.1 11 13.8 11 9.1 6.6 11.1"/></g></g></svg>